<svg width="200" height="200" viewBox="0 0 200 200" xmlns="http://www.w3.org/2000/svg">
  <!-- 背景圆形 -->
  <circle cx="100" cy="100" r="95" fill="#e8f5e8" stroke="#4ade80" stroke-width="3"/>
  
  <!-- 齿轮背景 -->
  <g transform="translate(50, 30)">
    <!-- 大齿轮 -->
    <circle cx="50" cy="40" r="35" fill="#374151" opacity="0.8"/>
    <!-- 齿轮齿 -->
    <g fill="#374151" opacity="0.8">
      <rect x="47" y="5" width="6" height="12" rx="3"/>
      <rect x="47" y="63" width="6" height="12" rx="3"/>
      <rect x="18" y="37" width="12" height="6" rx="3"/>
      <rect x="70" y="37" width="12" height="6" rx="3"/>
      
      <rect x="32" y="18" width="8" height="8" rx="2" transform="rotate(45 36 22)"/>
      <rect x="60" y="18" width="8" height="8" rx="2" transform="rotate(-45 64 22)"/>
      <rect x="32" y="54" width="8" height="8" rx="2" transform="rotate(-45 36 58)"/>
      <rect x="60" y="54" width="8" height="8" rx="2" transform="rotate(45 64 58)"/>
    </g>
    <!-- 齿轮中心 -->
    <circle cx="50" cy="40" r="8" fill="#1f2937"/>
  </g>
  
  <!-- Java文字 -->
  <text x="100" y="140" font-family="serif" font-size="32" font-weight="bold" fill="#374151" text-anchor="middle">Java</text>
  
  <!-- 装饰元素 -->
  <circle cx="160" cy="160" r="15" fill="#10b981" opacity="0.6"/>
  <circle cx="40" cy="170" r="8" fill="#3b82f6" opacity="0.5"/>
  
  <!-- 编辑图标 -->
  <g transform="translate(155, 40)">
    <circle cx="15" cy="15" r="12" fill="#6366f1" opacity="0.2"/>
    <path d="M8 18 L15 11 L17 13 L10 20 L8 18 Z" fill="#6366f1" opacity="0.8"/>
    <path d="M15 9 L17 11 L16 12 L14 10 Z" fill="#6366f1" opacity="0.8"/>
  </g>
</svg> 